<?xml version="1.0" standalone="no"?>
<!DOCTYPE svg PUBLIC "-//W3C//DTD SVG 20010904//EN"
 "http://www.w3.org/TR/2001/REC-SVG-20010904/DTD/svg10.dtd">
<svg version="1.0" xmlns="http://www.w3.org/2000/svg"
 width="640.000000pt" height="640.000000pt" viewBox="0 0 640.000000 640.000000"
 preserveAspectRatio="xMidYMid meet">
<metadata>
Created by potrace 1.11, written by Peter Selinger 2001-2013
</metadata>
<g transform="translate(0.000000,640.000000) scale(0.100000,-0.100000)"
fill="#000000" stroke="none">
<path d="M3205 5920 c20 -23 20 -23 -57 -20 -55 2 -173 -45 -150 -59 10 -6 5
-11 -15 -19 -15 -5 -37 -13 -48 -18 -18 -6 -18 -8 -2 -11 25 -6 21 -24 -16
-63 -18 -19 -45 -61 -60 -92 -14 -32 -30 -58 -36 -58 -6 0 -15 -9 -21 -21 -11
-20 -11 -20 17 -2 l28 18 -32 -40 c-18 -22 -33 -43 -33 -47 0 -11 82 31 92 46
5 6 8 7 8 1 0 -5 4 -4 9 4 5 7 13 11 19 7 7 -4 5 -22 -5 -53 -15 -51 -23 -236
-10 -249 4 -4 13 -2 19 4 39 39 98 -19 62 -59 -10 -11 -22 -19 -28 -19 -6 0
-33 -21 -61 -46 -27 -25 -70 -57 -95 -71 -78 -45 -150 -106 -183 -153 -27 -38
-21 -65 21 -100 44 -36 47 -32 -83 -89 -103 -45 -172 -57 -385 -66 -91 -3
-175 -13 -225 -25 -89 -22 -129 -25 -120 -10 11 17 -16 11 -74 -17 -31 -14
-69 -30 -86 -34 -43 -11 -96 -30 -127 -46 -16 -8 -64 -27 -108 -43 -45 -16
-94 -38 -109 -50 -16 -11 -36 -20 -45 -20 -9 0 -16 -8 -16 -19 0 -11 -6 -21
-12 -24 -35 -11 16 -202 87 -326 14 -23 25 -51 25 -61 0 -10 7 -34 15 -53 19
-45 19 -57 2 -33 -12 16 -15 16 -19 4 -4 -9 7 -26 28 -43 21 -18 34 -37 34
-52 0 -29 32 -93 37 -75 6 16 24 16 21 0 -2 -8 7 -12 25 -11 20 1 27 -2 24
-11 -4 -9 0 -12 11 -9 12 3 37 -21 83 -79 58 -73 79 -91 171 -145 120 -71 132
-87 143 -198 4 -38 9 -72 11 -74 2 -2 27 14 56 36 29 21 74 55 100 74 26 19
48 39 48 45 0 6 25 32 56 58 31 25 53 46 48 46 -5 0 2 7 14 16 13 9 27 25 31
36 6 18 10 16 46 -18 30 -28 51 -39 80 -42 28 -2 48 -12 65 -31 14 -15 34 -32
44 -38 17 -9 18 -16 8 -74 -5 -35 -12 -73 -15 -84 -14 -59 -18 -157 -7 -170 6
-8 9 -18 6 -24 -3 -5 1 -11 8 -14 8 -3 18 -26 21 -51 8 -52 25 -62 25 -16 0
30 13 37 39 21 11 -7 11 -20 3 -67 -5 -33 -7 -63 -2 -69 4 -5 10 -23 14 -40
l8 -30 -36 40 c-42 48 -47 32 -9 -28 34 -51 43 -58 66 -51 13 4 17 0 17 -18 0
-13 7 -32 16 -43 9 -12 14 -39 13 -73 -3 -68 7 -77 60 -61 50 15 75 1 47 -26
-9 -9 -16 -21 -16 -26 0 -5 -6 -9 -14 -9 -9 0 -17 -16 -21 -42 -4 -24 -12 -46
-19 -50 -6 -4 -10 -25 -10 -48 1 -22 -2 -40 -7 -40 -5 0 -9 -7 -9 -15 0 -13
29 -20 66 -16 7 1 9 -9 6 -26 -4 -19 -7 -23 -10 -10 -4 21 -35 22 -55 2 -18
-18 -31 -96 -22 -138 4 -18 16 -46 26 -63 14 -22 19 -52 20 -105 2 -57 3 -65
8 -35 5 32 8 37 18 25 12 -15 20 -64 27 -170 4 -53 1 -72 -14 -97 -11 -18 -24
-32 -30 -32 -5 0 -12 -11 -16 -24 -3 -13 -17 -35 -31 -48 l-26 -23 7 43 c7 46
5 47 -54 36 -49 -10 -55 -40 -25 -132 14 -42 30 -91 36 -109 5 -17 7 -54 3
-81 -4 -32 -2 -52 5 -56 6 -4 11 -36 12 -74 0 -37 4 -101 10 -142 5 -41 9 -79
8 -85 -3 -71 -6 -106 -10 -110 -8 -7 -62 -7 -86 0 -16 5 -23 3 -23 -6 0 -10
-3 -10 -12 -1 -7 7 -31 12 -55 12 -32 0 -43 4 -43 15 0 19 -29 20 -36 1 -3 -8
-12 -12 -19 -10 -12 5 -70 9 -163 13 -34 1 -45 5 -49 20 -3 11 -13 19 -26 18
-12 0 -38 1 -57 1 -19 1 -45 2 -57 2 -13 0 -29 0 -35 0 -7 0 -75 -1 -151 -2
-77 -2 -141 0 -144 5 -2 4 -8 5 -13 2 -5 -3 -11 -1 -15 5 -3 5 -23 10 -44 10
-20 0 -41 4 -47 10 -5 5 -32 11 -59 12 -35 2 -50 7 -50 17 0 15 -73 41 -116
41 -15 0 -42 7 -62 15 -59 25 -267 52 -267 35 0 -5 -12 -4 -28 0 -111 35 -140
38 -224 22 -75 -14 -85 -13 -110 1 -21 12 -46 15 -99 12 -41 -3 -79 -1 -91 6
-16 9 -19 8 -13 -2 6 -9 3 -11 -9 -6 -10 4 -25 7 -34 7 -14 0 -15 2 -2 10 24
15 8 17 -60 8 -136 -18 -148 -18 -176 9 -19 17 -42 26 -78 29 -33 3 -57 12
-69 25 -17 18 -44 18 -32 -1 3 -5 1 -11 -5 -15 -14 -8 -14 -875 0 -875 6 0 10
7 10 16 0 8 5 12 10 9 6 -4 8 -16 5 -27 -4 -12 0 -27 11 -39 21 -24 34 -24 35
-1 0 9 3 12 5 5 4 -8 13 -9 30 -3 13 5 24 6 25 2 0 -4 4 2 9 13 8 18 9 18 9
-5 l1 -25 19 28 c16 25 19 26 25 10 3 -10 13 -29 21 -43 13 -22 15 -23 16 -5
l0 20 9 -20 c8 -18 9 -17 9 8 1 22 6 27 26 27 14 0 25 -6 26 -12 0 -7 7 1 14
17 8 18 14 23 15 13 0 -9 5 -29 10 -44 10 -26 11 -27 24 -8 8 11 16 31 19 44
4 24 4 24 6 -2 1 -31 16 -36 41 -13 16 14 19 13 33 -9 9 -13 19 -36 23 -50 8
-33 24 -34 24 -1 0 14 5 24 12 22 6 -1 15 9 19 23 4 14 7 18 8 9 1 -9 8 -20
17 -23 22 -9 24 -8 24 9 0 8 5 15 10 15 6 0 10 -13 10 -29 0 -16 3 -44 7 -62
l6 -33 13 34 12 35 1 -29 c1 -28 2 -29 16 -10 8 10 15 30 15 44 1 39 16 57 24
28 7 -22 7 -22 16 -3 6 13 7 4 3 -28 -7 -55 1 -60 21 -15 11 25 15 28 15 13 1
-14 7 -8 20 20 15 32 20 35 20 18 1 -13 7 -23 16 -23 11 0 15 -11 15 -42 0
-39 1 -40 15 -22 13 17 14 17 15 2 0 -10 5 -18 10 -18 12 0 12 17 1 82 -9 55
3 56 14 1 4 -23 9 -32 14 -24 6 9 10 6 14 -9 3 -12 10 -19 16 -16 5 4 13 -4
17 -16 6 -21 7 -21 19 8 l13 29 1 -37 c1 -38 21 -65 21 -29 0 12 5 21 11 21 5
0 7 -5 3 -12 -4 -7 -3 -8 4 -4 7 4 12 18 12 32 0 15 6 24 16 24 12 0 14 -7 9
-30 -4 -20 -3 -30 5 -30 6 0 9 4 6 9 -4 5 2 7 11 5 13 -4 22 5 32 28 16 36 46
82 38 58 -2 -8 0 -24 6 -35 9 -17 8 -18 -5 -7 -14 11 -17 9 -23 -19 -5 -22 -3
-34 6 -40 16 -10 25 -2 32 26 3 13 5 9 6 -12 2 -54 31 -37 49 27 l9 35 7 -30
c12 -49 15 -55 26 -55 5 0 10 15 11 33 0 17 4 41 9 52 6 15 9 6 9 -32 1 -60
12 -72 40 -42 l20 21 -5 -23 c-5 -23 -5 -23 10 -5 12 15 16 16 17 5 1 -8 7 6
14 31 l13 45 2 -40 c2 -39 3 -39 10 -10 7 28 8 27 9 -14 1 -37 3 -42 16 -31 8
7 16 29 16 49 l1 36 8 -38 c9 -50 20 -58 20 -16 0 23 3 30 9 20 7 -11 11 -10
20 5 10 18 10 17 11 -5 0 -20 4 -22 25 -17 18 5 25 2 25 -9 0 -10 8 -14 22
-11 18 2 25 13 33 50 11 52 25 52 25 0 0 -37 19 -57 21 -22 1 17 3 18 6 6 8
-32 21 -19 27 27 4 24 12 48 18 51 7 5 9 -2 4 -20 -4 -15 -3 -44 1 -64 l8 -37
6 45 6 45 3 -60 c1 -33 4 -52 7 -42 2 9 11 17 18 17 19 0 28 34 20 80 -4 24
-3 40 3 40 5 0 12 -21 16 -48 4 -32 13 -51 26 -60 22 -14 22 -14 21 53 l-1 40
16 -47 c8 -27 19 -48 23 -48 5 0 12 24 16 53 l8 52 12 -35 c6 -19 15 -33 20
-30 4 3 12 -5 16 -18 7 -19 12 -21 28 -13 10 6 22 7 25 3 4 -4 5 7 1 23 -5 20
-4 26 3 16 7 -10 12 -7 21 15 9 25 10 22 4 -21 l-6 -50 28 30 28 30 -7 -44
c-6 -39 -5 -42 9 -27 12 12 15 26 10 60 -5 28 -3 46 4 50 7 5 11 -4 11 -24 0
-17 5 -41 12 -53 11 -21 11 -21 19 -2 6 17 8 15 9 -10 l2 -30 12 34 c10 27 14
31 19 18 8 -22 37 -22 38 1 1 9 5 1 9 -18 l7 -35 2 38 c0 20 6 37 11 37 6 0
10 13 10 29 0 47 17 45 24 -2 4 -23 12 -57 18 -74 12 -34 28 -44 28 -18 0 7 7
18 16 23 17 9 16 23 -2 66 -17 43 19 2 41 -46 25 -54 31 -53 41 13 10 65 23
83 24 32 0 -24 5 -43 10 -43 6 0 10 -6 10 -14 0 -8 6 -16 14 -19 10 -4 17 4
21 24 4 16 11 26 16 23 7 -4 8 8 3 32 -6 35 -6 37 8 23 9 -8 19 -30 23 -47 8
-40 22 -41 39 -2 14 33 29 30 20 -4 -3 -15 3 -29 21 -46 33 -31 45 -16 39 49
-3 33 -1 42 6 31 5 -8 10 -24 10 -35 0 -15 2 -17 9 -6 5 7 13 11 19 7 6 -3 13
-2 17 4 9 15 25 2 25 -21 0 -25 35 -65 45 -50 3 6 3 20 0 31 -4 11 -2 20 4 20
6 0 11 7 11 16 0 8 5 12 11 8 6 -3 9 -19 5 -35 -6 -33 0 -37 21 -11 8 9 12 12
9 7 -2 -6 0 -17 5 -25 15 -24 28 6 30 65 1 28 4 39 6 25 8 -48 14 -57 24 -32
4 12 12 22 16 22 12 0 33 -50 34 -79 l1 -26 8 25 c4 14 8 43 9 65 l1 40 15
-29 c8 -15 15 -37 15 -47 0 -32 14 -21 37 29 l23 47 0 -46 c0 -25 6 -54 14
-64 13 -18 14 -17 20 11 3 16 8 49 11 73 4 49 15 68 15 27 0 -15 4 -25 9 -22
5 3 12 -10 15 -29 7 -36 26 -39 26 -5 0 10 5 22 12 26 8 5 9 0 6 -14 -8 -27 6
-28 30 -2 19 20 19 20 30 -5 15 -33 32 -24 32 16 0 18 4 28 10 24 6 -3 10 -20
10 -36 0 -19 4 -28 11 -23 6 3 9 15 6 25 -3 11 -1 19 4 19 5 0 9 -12 9 -27 0
-37 13 -55 33 -47 10 3 17 1 17 -5 0 -6 5 -11 10 -11 6 0 21 -11 34 -25 24
-26 47 -35 27 -11 -9 10 -9 16 -1 21 7 4 14 -2 17 -14 6 -25 23 -28 23 -3 0 9
14 30 30 45 17 16 30 33 30 39 0 6 7 8 15 5 21 -9 28 10 8 22 -17 10 -16 10 3
11 23 0 54 -28 55 -51 0 -8 5 -3 11 11 6 15 12 20 15 13 10 -27 25 -12 21 21
-5 42 7 39 15 -4 9 -40 27 -38 27 3 0 17 5 39 10 47 8 13 10 12 10 -2 0 -10 5
-18 10 -18 6 0 10 -14 10 -31 0 -26 3 -30 23 -27 24 3 40 15 51 38 3 9 4 5 2
-7 -3 -19 0 -23 24 -23 29 0 40 15 40 52 0 13 5 18 14 15 8 -3 17 -1 20 6 4 7
4 2 2 -10 -6 -32 12 -39 38 -14 18 17 25 18 35 8 10 -10 12 -9 9 3 -3 15 36
23 57 11 6 -3 19 -6 30 -6 15 0 19 -7 20 -30 0 -38 31 -47 44 -13 7 17 10 19
10 6 1 -31 20 -19 24 15 4 31 4 31 5 -5 2 -40 22 -54 22 -15 1 22 1 22 16 -3
13 -22 14 -22 9 -3 -3 12 -1 24 5 28 5 3 10 -2 10 -13 0 -24 29 -37 36 -17 4
8 3 23 0 33 -6 16 -5 16 7 0 8 -10 17 -15 20 -11 4 3 7 -3 7 -14 0 -26 29 -21
56 8 24 26 34 24 34 -8 0 -14 3 -24 6 -21 3 3 5 25 6 48 0 28 3 38 9 29 5 -8
9 -22 9 -31 0 -10 5 -18 10 -18 6 0 10 -7 10 -15 0 -19 7 -19 27 1 15 15 17
14 29 -8 7 -12 14 -18 14 -13 1 6 3 36 5 69 5 69 15 88 15 27 0 -28 5 -44 15
-47 8 -4 15 -14 15 -24 0 -12 8 -17 24 -17 21 0 25 6 31 44 8 53 19 50 17 -4
-1 -28 1 -34 8 -23 7 11 10 11 10 2 0 -7 5 -10 10 -7 6 3 10 15 10 26 0 10 4
19 9 19 5 0 11 8 14 17 2 10 8 -7 14 -37 9 -48 11 -51 12 -20 2 34 3 34 13 10
10 -23 11 -23 15 -5 8 32 23 42 24 15 1 -20 3 -19 11 10 14 52 28 60 28 17 0
-20 3 -37 6 -37 18 0 44 23 44 40 0 24 16 35 24 15 6 -17 36 -21 36 -4 0 6 7
17 15 25 8 9 15 11 15 6 0 -16 31 -23 46 -11 11 9 14 8 14 -6 0 -30 25 -10 28
23 4 42 15 40 32 -3 13 -33 30 -47 30 -25 0 18 30 11 31 -7 0 -15 2 -15 9 2 7
17 9 16 9 -9 1 -16 4 -26 8 -23 3 4 12 2 18 -3 9 -8 17 -1 29 25 10 20 21 33
26 30 5 -3 13 3 19 12 9 16 11 15 11 -7 1 -14 4 -19 7 -12 2 6 9 10 14 6 5 -3
9 1 9 9 0 8 6 20 14 26 12 10 15 3 21 -38 5 -38 10 -48 23 -47 10 2 18 14 20
29 3 28 32 39 32 12 0 -21 18 -19 23 2 4 17 5 17 6 0 1 -11 6 -15 12 -11 7 4
19 -3 29 -16 17 -22 17 -22 15 24 -2 59 15 59 40 1 11 -24 25 -47 32 -49 7 -3
10 1 6 10 -4 10 2 14 21 14 18 0 26 5 27 18 0 14 2 14 8 -3 7 -17 11 -12 24
30 9 30 16 41 16 27 1 -13 5 -20 11 -17 6 3 10 0 10 -8 0 -8 6 -20 14 -26 12
-10 17 -8 26 9 15 27 30 16 31 -23 1 -21 3 -25 6 -12 6 25 23 44 23 26 0 -7 7
-19 15 -27 13 -14 15 -12 16 13 0 15 3 22 6 16 9 -23 23 -14 24 15 1 16 3 20
6 10 6 -23 20 -23 26 -1 4 14 5 13 6 -4 0 -12 6 -33 13 -47 l11 -26 14 27 c8
15 12 36 9 46 -4 15 -2 16 10 6 11 -9 14 -8 14 4 0 9 5 19 11 23 9 5 10 -4 5
-32 -6 -36 -5 -38 9 -20 15 19 15 19 15 -2 0 -12 5 -22 10 -22 13 0 13 37 0
45 -11 7 -2 35 11 35 5 0 9 -6 9 -14 0 -8 5 -27 11 -43 8 -22 12 -24 19 -13 6
8 10 29 11 45 1 21 3 24 6 10 3 -11 10 -23 15 -26 6 -4 13 -28 16 -54 4 -36 7
-43 14 -31 12 21 0 98 -16 108 -8 5 -7 8 2 8 7 0 22 -19 32 -42 14 -31 20 -37
20 -21 0 16 4 21 15 17 9 -4 15 0 15 8 0 7 10 22 22 32 20 18 21 18 13 0 -10
-26 -19 -110 -11 -102 4 3 14 28 21 55 11 41 13 44 14 18 2 -28 3 -29 15 -12
11 14 15 15 19 5 3 -7 6 -3 6 9 1 12 5 25 11 28 6 4 10 75 10 179 l0 173 -52
7 c-29 4 -123 9 -208 11 -85 3 -168 11 -184 17 -17 7 -81 12 -148 13 -74 0
-117 4 -115 10 2 6 26 13 53 16 27 3 57 9 68 14 11 5 21 4 25 -3 9 -14 120 2
162 23 38 20 60 19 52 -1 -5 -15 0 -16 48 -10 30 4 72 8 94 9 33 2 40 6 40 22
0 16 -6 20 -35 18 -19 -1 -36 -6 -38 -12 -7 -21 -22 -11 -22 14 0 18 5 25 20
25 13 0 18 5 14 15 -7 17 -34 21 -34 5 0 -14 -33 -13 -48 2 -9 9 -12 8 -12 -7
-1 -19 -1 -19 -14 -2 -16 21 -35 22 -50 3 -10 -13 -13 -13 -24 0 -7 8 -8 14
-2 14 24 0 7 27 -24 38 -124 45 -270 63 -450 56 -456 -18 -544 -24 -587 -38
-24 -9 -45 -12 -47 -7 -4 11 -42 2 -42 -9 0 -4 -9 -10 -20 -13 -11 -3 -20 -1
-20 5 0 10 -70 6 -185 -12 -113 -17 -144 -19 -139 -6 3 7 -7 10 -28 9 -18 -1
-33 -2 -33 -3 0 0 -27 -3 -60 -6 -33 -2 -72 -5 -87 -7 -16 -1 -28 -8 -28 -14
0 -16 -66 -18 -75 -3 -3 5 -23 10 -43 10 -29 0 -45 -8 -79 -42 -31 -30 -43
-37 -43 -25 0 13 -9 17 -40 17 -22 0 -40 -5 -40 -10 0 -6 -32 -9 -85 -7 -54 2
-86 0 -89 -7 -2 -6 -3 34 0 89 2 55 0 143 -6 195 -12 116 -12 343 0 373 5 12
12 44 15 71 5 37 14 55 38 77 28 26 29 29 11 34 -10 4 -32 13 -47 22 -41 22
-50 7 -51 -82 l-1 -76 -13 43 c-7 24 -19 63 -27 88 -16 50 -20 200 -5 200 5 0
11 -30 13 -67 2 -43 3 -29 3 37 1 58 -1 90 -3 72 -2 -18 -9 -30 -14 -27 -15
10 -10 62 6 69 8 3 15 16 14 28 0 22 -1 22 -10 3 -15 -33 0 53 18 97 15 37 48
56 37 21 -5 -17 -5 -17 9 -1 15 19 32 25 22 8 -4 -6 2 -7 17 -2 13 5 57 7 98
6 41 -2 80 2 87 7 14 12 90 -1 150 -26 36 -15 114 -13 138 5 21 15 75 29 75
19 0 -5 10 -3 23 5 12 8 39 18 60 21 28 6 37 11 33 22 -3 8 -6 17 -6 19 0 2
-9 4 -20 4 -11 0 -20 5 -20 10 0 6 -11 10 -24 10 -13 0 -29 7 -36 15 -7 8 -17
15 -22 15 -6 0 -24 12 -40 26 -22 18 -34 22 -41 15 -14 -14 -54 -14 -62 -1 -4
6 -10 8 -15 5 -5 -3 -21 7 -36 22 l-28 28 -6 -25 c-4 -17 -8 -21 -14 -12 -10
16 -51 15 -65 -2 -7 -8 -21 -12 -31 -9 -11 3 -28 2 -37 -2 -10 -4 -45 -9 -78
-11 -105 -7 -105 -7 -99 -29 5 -15 3 -17 -6 -9 -12 12 -20 60 -22 132 0 27 -6
46 -14 49 -8 3 -14 17 -14 32 0 15 -6 35 -14 46 -22 33 -26 76 -7 83 9 3 19
10 23 16 13 19 9 63 -7 76 -8 7 -15 9 -15 6 0 -4 -7 -1 -15 8 -15 15 -21 67
-7 65 4 -1 10 0 15 1 4 1 10 3 15 4 4 1 17 7 28 14 12 6 24 9 27 5 6 -5 7 17
8 112 0 10 5 25 11 32 7 9 9 43 5 102 -4 57 -3 91 4 98 8 8 8 13 0 17 -14 9
-14 51 -1 74 6 9 40 89 76 177 85 210 88 231 81 735 -7 477 -15 539 -113 823
-39 113 -51 137 -65 137 -20 0 -100 75 -134 126 -19 29 -42 55 -52 58 -10 3
-24 15 -31 26 -11 18 -9 25 12 53 32 43 56 127 56 198 0 32 4 61 10 64 6 4 4
17 -5 35 -8 16 -15 39 -15 52 0 13 -18 54 -40 92 -50 86 -54 121 -8 79 15 -14
18 -14 18 -1 0 17 -85 76 -140 98 -19 7 -51 24 -70 37 -19 13 -46 23 -60 23
-14 1 -36 7 -50 15 -38 22 -57 19 -35 -5z m422 -1046 c-3 -3 -12 -4 -19 -1 -8
3 -5 6 6 6 11 1 17 -2 13 -5z m-247 -54 c0 -5 -6 -10 -14 -10 -8 0 -21 -3 -30
-6 -9 -3 -16 -1 -16 4 0 10 19 18 48 21 6 0 12 -3 12 -9z m186 -15 c-3 -8 2
-11 15 -8 23 6 24 -4 3 -29 -14 -15 -15 -20 -3 -34 12 -15 11 -16 -8 -10 -15
5 -24 2 -31 -9 -5 -9 -13 -18 -18 -18 -5 -1 -8 -5 -7 -8 1 -4 -6 -5 -16 -2
-11 3 -29 0 -41 -7 -19 -10 -21 -9 -18 11 2 14 21 34 50 53 44 29 59 46 40 46
-5 0 -19 -9 -32 -20 -13 -11 -27 -20 -31 -20 -4 0 -14 -3 -23 -6 -9 -3 -16 -1
-16 6 0 6 4 9 9 6 4 -3 17 2 27 10 18 15 18 15 -6 10 -14 -3 -31 -6 -37 -6 -7
0 -13 -5 -13 -10 0 -20 -38 -52 -52 -44 -7 4 -10 4 -6 -1 11 -12 -27 -36 -45
-29 -8 3 -18 1 -22 -5 -4 -7 1 -8 12 -4 16 5 16 4 -2 -15 -11 -11 -30 -23 -42
-27 -19 -5 -22 -3 -17 10 5 11 14 15 27 11 19 -5 19 -4 4 11 -15 15 -14 17 10
30 14 7 34 11 43 8 11 -3 17 0 17 10 0 9 -10 15 -26 16 -24 0 -24 1 -6 9 11 5
35 9 53 9 17 1 32 6 32 11 0 10 -20 14 -54 10 -11 -1 -15 3 -12 9 4 6 19 11
33 11 15 0 40 4 57 9 93 28 162 31 152 6z m-626 5 c0 -5 -2 -10 -4 -10 -3 0
-8 5 -11 10 -3 6 -1 10 4 10 6 0 11 -4 11 -10z m196 -23 c4 -4 -5 -7 -20 -7
-15 0 -25 4 -22 9 7 10 31 9 42 -2z m504 -28 c0 -12 -27 -11 -35 1 -11 17 5
32 21 19 8 -6 14 -15 14 -20z m-500 1 c25 0 51 5 57 11 6 6 23 9 39 6 29 -4
29 -4 -3 -6 -23 -1 -31 -5 -27 -15 6 -15 -29 -32 -45 -22 -5 4 -16 -1 -24 -9
-9 -8 -23 -15 -32 -15 -9 0 -21 -13 -26 -29 -6 -16 -21 -36 -34 -45 -22 -14
-23 -14 -28 13 -4 20 -18 34 -51 52 -25 13 -46 26 -46 29 0 3 11 10 25 16 20
10 25 9 30 -5 6 -18 62 -81 73 -81 4 0 16 16 27 36 15 29 17 39 7 55 -15 24
-15 36 0 21 7 -7 33 -12 58 -12z m287 -60 c-8 -20 -15 -26 -22 -19 -7 7 -5 13
5 19 8 5 11 10 5 10 -8 0 13 19 22 20 1 0 -4 -13 -10 -30z m193 8 c0 -6 -20
-31 -45 -55 -25 -24 -40 -43 -33 -43 7 0 -2 -9 -20 -20 -39 -24 -64 -27 -36
-4 19 15 12 15 -29 -1 -16 -7 -17 -4 -11 21 4 16 10 30 13 32 3 1 38 20 76 42
76 43 85 46 85 28z m-737 -25 c-14 -5 -18 -24 -5 -22 19 3 26 -2 13 -10 -9 -6
-19 -5 -27 2 -10 10 -9 16 4 30 8 9 18 14 21 11 3 -4 0 -9 -6 -11z m755 -21
c-7 -17 -20 -33 -29 -35 -15 -4 -13 2 8 34 30 46 38 46 21 1z m-264 -4 c-3
-13 -12 -29 -18 -37 -8 -10 -2 -9 22 3 19 10 36 15 39 13 6 -7 -147 -97 -164
-97 -17 0 -17 40 0 41 10 0 10 2 0 6 -7 2 -13 9 -13 14 0 6 4 8 9 5 5 -3 28
12 52 34 51 45 84 53 73 18z m69 -13 c-3 -9 -8 -14 -10 -11 -3 3 -2 9 2 15 9
16 15 13 8 -4z m-633 0 c0 -9 -63 -150 -72 -159 -4 -6 -8 -23 -8 -39 0 -19
-11 -39 -37 -64 -21 -19 -27 -28 -14 -19 24 15 26 14 42 -11 13 -20 15 -31 7
-40 -16 -20 -41 -17 -34 4 4 10 4 14 -1 10 -4 -4 -15 -29 -25 -54 -16 -44 -16
-48 -1 -65 21 -24 26 -17 13 16 -7 18 -7 33 0 44 8 14 9 13 10 -8 0 -29 16
-57 26 -47 4 3 1 13 -6 22 -18 21 -7 19 20 -5 19 -16 20 -20 6 -20 -15 0 -15
-2 -1 -30 9 -16 11 -30 6 -30 -5 0 -13 9 -16 21 -4 11 -9 19 -11 16 -9 -9 10
-39 30 -47 19 -8 19 -9 2 -9 -11 -1 -34 10 -52 24 -51 39 -46 15 8 -36 26 -25
48 -44 48 -41 0 2 7 -1 15 -8 21 -17 19 -30 -5 -30 -11 0 -20 4 -20 9 0 5 -11
9 -25 9 -14 0 -25 -4 -25 -9 0 -14 -28 -11 -37 4 -4 6 -35 32 -67 56 -33 25
-55 46 -48 49 7 2 12 10 12 18 0 8 5 14 10 14 6 0 10 6 10 14 0 8 5 16 10 18
6 2 20 30 31 63 12 33 27 67 34 75 7 8 32 58 55 110 24 52 51 114 62 138 10
23 25 42 33 42 8 0 15 -2 15 -5z m137 -36 c7 -13 13 -18 13 -10 0 8 3 12 6 8
3 -3 3 -11 -1 -17 -7 -12 -55 25 -55 43 0 16 25 1 37 -24z m270 9 c-3 -8 -6
-5 -6 6 -1 11 2 17 5 13 3 -3 4 -12 1 -19z m-117 -28 c0 -5 -2 -10 -4 -10 -3
0 -8 5 -11 10 -3 6 -1 10 4 10 6 0 11 -4 11 -10z m297 -14 c-4 -9 -21 -22 -39
-30 -18 -8 -26 -15 -18 -16 8 0 -1 -9 -20 -20 -39 -21 -54 -25 -46 -11 4 5 0
12 -6 15 -8 4 -9 8 -3 11 6 3 37 20 70 39 63 35 71 37 62 12z m191 5 c-12 -19
-147 -86 -155 -77 -13 13 21 41 78 66 80 35 93 37 77 11z m-758 5 c0 -2 -7 -7
-16 -10 -8 -3 -12 -2 -9 4 6 10 25 14 25 6z m186 -33 c-10 -10 -19 5 -10 18 6
11 8 11 12 0 2 -7 1 -15 -2 -18z m202 -18 c1 -27 -3 -35 -16 -35 -10 0 -27 -7
-40 -15 -19 -14 -21 -14 -16 -1 3 8 13 18 23 21 9 3 22 18 28 35 15 39 19 38
21 -5z m242 31 c0 -2 -7 -7 -16 -10 -8 -3 -12 -2 -9 4 6 10 25 14 25 6z m-576
-15 c4 -5 -3 -7 -14 -4 -23 6 -26 13 -6 13 8 0 17 -4 20 -9z m280 -16 c-4 -8
-12 -15 -20 -15 -8 0 -14 -5 -14 -12 0 -6 -3 -8 -7 -5 -3 4 -15 0 -25 -10 -10
-9 -21 -13 -24 -10 -4 3 9 20 27 36 36 33 73 42 63 16z m-229 -15 c3 -5 1 -10
-4 -10 -6 0 -11 5 -11 10 0 6 2 10 4 10 3 0 8 -4 11 -10z m451 -16 c-3 -9 -6
-18 -6 -20 0 -2 -6 -4 -14 -4 -8 0 -40 -13 -71 -30 -66 -35 -65 -34 -65 -16 0
7 33 30 73 49 82 41 92 43 83 21z m194 -3 c0 -12 -41 -41 -100 -72 -65 -33
-74 -33 -53 3 24 40 153 98 153 69z m-171 -8 c-3 -20 3 -23 24 -12 17 9 19 9
11 0 -6 -7 -23 -14 -38 -17 -25 -4 -26 -3 -16 16 11 20 21 27 19 13z m-149 -7
c0 -3 -4 -8 -10 -11 -5 -3 -10 -1 -10 4 0 6 5 11 10 11 6 0 10 -2 10 -4z m-80
-31 c-14 -17 -111 -67 -118 -60 -7 6 19 28 63 51 49 27 73 31 55 9z m40 11 c0
-3 -4 -8 -10 -11 -5 -3 -10 -1 -10 4 0 6 5 11 10 11 6 0 10 -2 10 -4z m-395
-16 c3 -6 -1 -7 -9 -4 -18 7 -21 14 -7 14 6 0 13 -4 16 -10z m95 -1 c0 -14
-40 -16 -57 -4 -16 12 -14 14 19 12 21 -1 38 -5 38 -8z m650 -9 c-6 -11 -18
-20 -28 -20 -14 1 -13 4 7 20 29 25 34 25 21 0z m-230 6 c0 -2 -7 -7 -16 -10
-8 -3 -12 -2 -9 4 6 10 25 14 25 6z m-469 -23 c13 -15 12 -15 -8 -4 -24 12
-29 21 -14 21 5 0 15 -7 22 -17z m329 7 c0 -5 -8 -10 -17 -10 -15 0 -16 2 -3
10 19 12 20 12 20 0z m160 -8 c0 -23 -97 -82 -135 -82 -34 0 -12 32 38 54 79
36 97 42 97 28z m-603 -18 c-3 -4 4 -15 16 -26 22 -19 22 -19 -11 -3 -30 15
-36 35 -10 35 6 0 9 -3 5 -6z m381 -13 c11 -6 11 -10 0 -18 -27 -22 -88 -44
-99 -37 -7 4 -9 3 -6 -3 4 -6 -5 -15 -19 -22 -33 -15 -45 -14 -38 3 3 9 12 12
21 9 10 -4 14 -2 10 4 -8 12 34 43 58 43 9 0 23 7 31 15 17 17 24 18 42 6z
m392 -16 c-25 -30 -144 -67 -134 -42 4 12 135 67 143 60 2 -1 -2 -10 -9 -18z
m-340 2 c0 -12 -39 -37 -56 -37 -5 0 48 49 54 50 1 0 2 -6 2 -13z m-345 -37
c3 -6 -1 -7 -9 -4 -18 7 -21 14 -7 14 6 0 13 -4 16 -10z m675 -10 c0 -5 -8
-10 -18 -10 -9 0 -42 -9 -72 -20 -30 -11 -63 -20 -72 -20 -10 0 -18 -5 -18
-11 0 -5 -5 -7 -11 -3 -16 10 5 27 38 30 15 2 53 12 83 23 65 23 70 24 70 11z
m-440 -16 l-25 -15 25 7 c39 10 42 10 47 -2 2 -6 -9 -14 -24 -17 -15 -3 -37
-9 -47 -13 -16 -6 -18 -4 -13 9 6 16 4 16 -21 2 -15 -8 -37 -22 -49 -31 -13
-9 -23 -12 -23 -7 0 11 127 82 145 82 6 0 -1 -6 -15 -15z m219 -18 c-17 -17
-107 -37 -114 -25 -6 8 116 49 124 42 3 -2 -2 -10 -10 -17z m-99 10 c0 -2 -9
-6 -20 -9 -11 -3 -20 -1 -20 4 0 5 9 9 20 9 11 0 20 -2 20 -4z m-422 -15 c9
-4 34 -16 55 -26 26 -13 34 -21 25 -27 -8 -5 -19 -1 -29 11 -8 10 -30 22 -47
26 -17 3 -34 11 -37 16 -8 11 10 12 33 0z m706 -2 c-7 -12 -108 -59 -126 -59
-24 0 21 33 69 51 58 21 66 22 57 8z m-607 -25 c-3 -3 -12 -4 -19 -1 -8 3 -5
6 6 6 11 1 17 -2 13 -5z m266 -36 c-18 -18 -36 -28 -40 -24 -8 8 45 56 62 56
5 0 -5 -14 -22 -32z m-203 12 c0 -5 -5 -10 -11 -10 -5 0 -7 5 -4 10 3 6 8 10
11 10 2 0 4 -4 4 -10z m160 2 c0 -13 -68 -42 -98 -41 -15 0 -21 3 -13 6 11 5
11 7 0 15 -10 6 -7 7 9 3 13 -4 28 -2 35 3 10 9 35 17 60 21 4 0 7 -3 7 -7z
m217 0 c10 8 12 7 7 -5 -3 -8 -12 -18 -20 -21 -9 -3 -12 -1 -9 4 8 13 8 13
-53 -10 -55 -21 -93 -27 -76 -11 19 17 119 49 128 40 6 -5 15 -4 23 3z m117
-57 c-10 -8 -43 -20 -72 -26 -85 -20 -83 9 3 31 22 6 47 14 55 19 24 14 37 -7
14 -24z m-134 5 c-8 -5 -24 -10 -35 -10 -27 0 -3 15 27 17 18 2 20 0 8 -7z
m-232 -25 c-9 -9 -84 -19 -76 -10 8 8 71 23 77 18 2 -1 2 -5 -1 -8z m46 3 c-5
-8 -2 -9 11 -4 11 4 40 9 65 11 25 2 37 2 27 -1 -17 -5 -17 -7 4 -22 16 -11
24 -12 27 -4 2 7 11 12 20 12 14 0 15 -2 3 -9 -11 -7 -6 -12 20 -19 l34 -10
-42 -1 c-23 -1 -43 -6 -45 -12 -2 -6 -26 -13 -53 -15 -35 -2 -44 0 -30 6 11 5
30 9 43 9 12 1 22 5 22 11 0 5 -6 8 -12 6 -7 -3 -40 -7 -73 -10 l-60 -6 30 17
c25 14 27 18 12 21 -10 2 -28 -4 -40 -14 -12 -10 -9 -4 7 14 30 33 43 41 30
20z m390 4 c3 -5 -1 -9 -9 -9 -8 0 -15 4 -15 9 0 4 4 8 9 8 6 0 12 -4 15 -8z
m-604 -12 c0 -5 -4 -10 -10 -10 -5 0 -10 5 -10 10 0 6 5 10 10 10 6 0 10 -4
10 -10z m530 -43 c-13 -29 -29 -46 -50 -55 -18 -7 -29 -8 -25 -2 3 5 1 10 -6
10 -7 0 0 10 14 23 15 12 27 26 27 31 0 11 44 45 52 40 4 -3 -2 -23 -12 -47z
m-480 23 c-20 -13 -43 -13 -35 0 3 6 16 10 28 10 18 0 19 -2 7 -10z m413 -7
c-7 -2 -19 -2 -25 0 -7 3 -2 5 12 5 14 0 19 -2 13 -5z m-368 -22 c-11 -11
-123 -27 -113 -17 3 4 28 11 55 16 69 11 68 11 58 1z m25 -29 l-35 -27 44 -5
c25 -3 46 -11 49 -17 2 -7 -1 -13 -8 -13 -6 0 -8 5 -4 11 4 8 -12 10 -54 7
l-59 -3 45 42 c25 24 48 40 51 37 3 -3 -10 -17 -29 -32z m310 14 c-17 -16 -90
-31 -90 -18 0 19 26 32 64 32 35 0 38 -2 26 -14z m-740 -17 c0 -5 -4 -9 -10
-9 -5 0 -10 7 -10 16 0 8 5 12 10 9 6 -3 10 -10 10 -16z m527 15 c-3 -3 -12
-4 -19 -1 -8 3 -5 6 6 6 11 1 17 -2 13 -5z m60 -20 c-11 -11 -139 -15 -132 -4
3 5 36 10 72 10 37 0 64 -3 60 -6z m-345 -16 c-9 -9 -15 -9 -24 0 -9 9 -7 12
12 12 19 0 21 -3 12 -12z m428 -4 c0 -2 -16 -4 -36 -4 -19 0 -33 4 -30 8 5 8
66 4 66 -4z m37 0 c-3 -3 -12 -4 -19 -1 -8 3 -5 6 6 6 11 1 17 -2 13 -5z m33
2 c0 -3 -4 -8 -10 -11 -5 -3 -10 -1 -10 4 0 6 5 11 10 11 6 0 10 -2 10 -4z
m-435 -15 c-6 -5 -26 -14 -45 -19 -25 -7 -29 -10 -12 -11 27 -1 28 -12 4 -28
-21 -13 -48 -1 -38 16 4 6 0 11 -10 11 -27 0 2 28 34 33 53 8 76 7 67 -2z
m243 -16 c-15 -14 -31 -25 -35 -25 -8 1 48 50 57 50 3 0 -7 -11 -22 -25z m267
6 c-6 -5 -19 -11 -30 -14 -18 -4 -18 -5 3 -6 12 0 22 -5 22 -11 0 -5 -6 -7
-14 -4 -8 3 -28 -2 -45 -10 -16 -9 -41 -16 -55 -16 -13 0 -32 -3 -40 -6 -14
-5 -14 -9 -4 -22 7 -8 9 -13 3 -11 -85 40 -85 40 -108 25 -12 -8 -40 -18 -62
-22 -22 -3 -44 -10 -50 -14 -5 -5 -23 -6 -38 -3 -37 7 -22 17 63 42 95 28 137
33 162 21 21 -10 21 -10 6 3 -24 19 -23 25 5 30 12 2 2 2 -22 0 -32 -3 -41 -1
-36 7 5 8 25 11 59 8 28 -3 76 -2 106 2 83 11 85 11 75 1z m-392 -37 c-23 -17
-34 -18 -30 -1 3 17 18 26 34 20 11 -4 10 -8 -4 -19z m477 6 c0 -5 -5 -10 -11
-10 -5 0 -7 5 -4 10 3 6 8 10 11 10 2 0 4 -4 4 -10z m-570 -10 c12 -7 12 -10
1 -10 -7 0 -11 -6 -7 -15 3 -8 -3 -20 -12 -27 -9 -7 -24 -21 -32 -32 -14 -18
-13 -18 18 -12 37 9 43 0 10 -13 -18 -7 -29 -3 -50 17 -16 14 -28 33 -28 43 0
19 33 36 38 20 2 -6 8 -11 13 -11 6 0 7 5 4 10 -9 15 2 40 17 40 7 0 20 -5 28
-10z m530 -9 c0 -5 -9 -11 -21 -14 -16 -4 -18 -3 -8 9 13 16 29 19 29 5z
m-771 -1188 c1 -19 -4 -33 -10 -33 -7 0 -18 -8 -25 -17 -7 -10 -14 -13 -14 -6
0 6 4 15 10 18 5 3 8 37 5 78 l-4 72 19 -40 c10 -22 19 -55 19 -72z m705 -83
c4 0 5 -7 2 -15 -3 -9 1 -18 8 -21 8 -3 17 -12 20 -21 5 -11 -1 -14 -22 -13
-46 3 -49 1 -44 -25 5 -27 -22 -58 -43 -51 -6 2 -12 -7 -13 -20 -1 -13 -2 -27
-3 -31 -4 -22 3 -33 20 -33 44 0 51 -10 51 -69 0 -44 -4 -60 -20 -74 -11 -9
-20 -24 -20 -32 0 -8 -4 -15 -9 -15 -5 0 -13 -10 -17 -22 -8 -25 25 -58 58
-58 18 0 19 -4 13 -41 -5 -27 -4 -39 3 -35 24 14 30 -109 7 -140 -18 -24 -20
-101 -2 -107 9 -3 9 -9 0 -24 -6 -11 -8 -24 -4 -29 4 -5 13 -26 20 -47 15 -44
8 -102 -20 -164 -11 -23 -19 -46 -19 -50 0 -5 -5 -14 -12 -21 -9 -9 -14 -7
-24 6 -12 16 -15 15 -39 -9 -21 -21 -25 -31 -17 -45 5 -11 12 -45 16 -77 3
-32 13 -75 22 -95 9 -23 15 -67 15 -117 -1 -84 11 -233 24 -298 4 -23 3 -37
-3 -37 -13 0 -23 26 -16 44 3 8 1 17 -5 21 -8 4 -11 -18 -11 -68 0 -40 -3 -76
-6 -80 -3 -3 -17 -2 -29 3 -18 7 -30 4 -47 -9 -38 -30 -128 -24 -128 9 0 10
-5 22 -10 25 -6 4 -8 11 -5 16 4 5 8 80 11 167 3 86 6 207 8 268 2 61 6 115 8
120 3 5 6 38 6 73 1 35 6 69 11 74 7 7 7 15 0 24 -17 19 -31 16 -24 -6 7 -22
-10 -71 -25 -71 -5 0 -12 12 -15 28 -3 15 -10 43 -15 62 -6 23 -6 36 0 38 6 2
10 35 10 73 0 52 -3 69 -14 69 -8 0 -17 -12 -21 -27 -6 -25 -8 -26 -17 -10 -8
14 -13 16 -24 6 -11 -9 -14 -7 -14 15 0 18 5 26 18 26 16 1 16 2 -1 14 -18 14
-18 16 3 61 12 26 28 81 36 123 8 42 21 106 29 142 8 36 15 75 15 87 0 12 12
35 26 52 14 17 21 31 15 31 -6 0 -11 9 -11 21 0 11 -8 39 -19 62 -10 23 -22
57 -26 76 -7 34 -7 34 16 17 32 -22 53 -21 44 2 -15 37 -15 63 -1 68 22 9 26
31 11 60 -8 15 -12 31 -9 36 3 4 -2 8 -11 8 -23 0 -14 23 13 35 12 5 20 16 17
22 -2 7 -1 13 3 13 4 0 18 3 31 7 20 5 22 3 16 -16 -5 -17 -2 -21 14 -21 11 0
23 5 26 10 3 6 20 10 37 10 23 0 29 4 24 16 -5 13 1 15 46 10 29 -3 57 -5 62
-6z m-504 -26 c0 -15 -31 -33 -90 -52 -36 -11 -66 -19 -68 -17 -16 15 92 72
141 74 9 1 17 -2 17 -5z m545 -264 c3 -5 1 -10 -4 -10 -6 0 -11 5 -11 10 0 6
2 10 4 10 3 0 8 -4 11 -10z m23 -34 c-7 -8 -15 -12 -17 -11 -5 6 10 25 20 25
5 0 4 -6 -3 -14z m261 -159 c-2 -18 0 -38 5 -45 4 -7 5 -20 2 -28 -3 -9 -2
-24 4 -34 7 -14 6 -17 -8 -16 -9 0 -21 -9 -27 -21 -11 -25 -25 -31 -25 -10 2
51 22 160 32 172 18 20 20 19 17 -18z m-666 -827 c16 0 18 -3 10 -11 -20 -20
-63 15 -55 43 5 22 6 22 15 -5 6 -18 16 -27 30 -27z m8 -39 c18 30 19 -2 0
-39 -11 -22 -17 -42 -14 -46 4 -3 1 -6 -5 -6 -14 0 -15 22 -5 71 3 19 8 28 11
20 4 -11 6 -11 13 0z m39 -35 c0 -3 -4 -8 -10 -11 -5 -3 -10 -1 -10 4 0 6 5
11 10 11 6 0 10 -2 10 -4z m-2970 -257 c0 -6 -9 -8 -20 -4 -11 4 -20 2 -20 -4
0 -15 57 -14 63 2 3 9 9 7 24 -5 11 -10 32 -18 48 -18 16 0 26 -3 22 -6 -8 -8
-151 6 -168 17 -12 8 -12 11 1 19 20 13 50 13 50 -1z m3609 -106 c0 -31 -2
-34 -9 -18 -12 28 -12 55 0 55 6 0 10 -17 9 -37z m931 -172 c0 -6 -4 -13 -10
-16 -5 -3 -10 1 -10 9 0 9 5 16 10 16 6 0 10 -4 10 -9z m-1474 -52 c7 -13 -13
-29 -36 -28 -10 0 -11 2 -2 6 6 2 12 11 12 19 0 17 16 19 26 3z m2307 -16 c-7
-2 -19 -2 -25 0 -7 3 -2 5 12 5 14 0 19 -2 13 -5z m614 -9 c-3 -3 -12 -4 -19
-1 -8 3 -5 6 6 6 11 1 17 -2 13 -5z m-6044 -484 c-3 -12 -8 -19 -11 -16 -5 6
5 36 12 36 2 0 2 -9 -1 -20z m5504 -12 c-3 -8 -6 -5 -6 6 -1 11 2 17 5 13 3
-3 4 -12 1 -19z m240 0 c-3 -8 -6 -5 -6 6 -1 11 2 17 5 13 3 -3 4 -12 1 -19z
m-2777 -33 c0 -8 -2 -15 -4 -15 -2 0 -6 7 -10 15 -3 8 -1 15 4 15 6 0 10 -7
10 -15z m-228 -47 c-6 -6 -7 0 -4 19 5 21 7 23 10 9 2 -10 0 -22 -6 -28z
m-1525 10 c-3 -8 -6 -5 -6 6 -1 11 2 17 5 13 3 -3 4 -12 1 -19z m-190 -40 c-3
-8 -6 -5 -6 6 -1 11 2 17 5 13 3 -3 4 -12 1 -19z m2397 -18 c4 -25 3 -31 -4
-20 -5 8 -10 26 -10 39 0 32 6 24 14 -19z"/>
<path d="M3275 4570 c-3 -6 1 -7 9 -4 18 7 21 14 7 14 -6 0 -13 -4 -16 -10z"/>
<path d="M2700 4351 c0 -6 4 -13 10 -16 6 -3 7 1 4 9 -7 18 -14 21 -14 7z"/>
<path d="M2575 4147 c6 -14 45 -41 51 -34 2 2 -10 13 -26 25 -16 12 -27 16
-25 9z"/>
<path d="M3365 4080 c-3 -5 -2 -10 4 -10 5 0 13 5 16 10 3 6 2 10 -4 10 -5 0
-13 -4 -16 -10z"/>
<path d="M3120 2490 c0 -5 12 -10 28 -9 24 0 25 1 7 9 -27 12 -35 12 -35 0z"/>
<path d="M3348 2098 c-10 -12 -14 -24 -10 -27 4 -4 13 -17 19 -31 11 -23 12
-20 12 28 1 28 0 52 -1 52 -2 0 -11 -10 -20 -22z"/>
<path d="M3022 1876 c-15 -33 -16 -66 -1 -66 6 0 8 9 4 21 -4 13 -2 25 5 29 7
4 10 16 8 26 -2 14 -5 13 -16 -10z"/>
<path d="M3841 3224 c0 -11 3 -14 6 -6 3 7 2 16 -1 19 -3 4 -6 -2 -5 -13z"/>
<path d="M417 2943 c-7 -6 -40 -11 -104 -16 -24 -2 -29 -5 -21 -15 8 -9 8 -16
-1 -25 -10 -9 -16 -7 -31 10 l-18 22 -4 -23 c-4 -21 -1 -24 28 -24 17 0 43 -3
55 -7 23 -7 23 -6 5 7 -27 21 -12 38 27 32 39 -7 87 10 87 31 0 16 -12 20 -23
8z m-17 -23 c0 -5 -5 -10 -11 -10 -5 0 -7 5 -4 10 3 6 8 10 11 10 2 0 4 -4 4
-10z"/>
<path d="M1715 2924 c-27 -7 -69 -14 -92 -14 -54 0 -70 -24 -53 -75 11 -32 30
-48 30 -25 0 6 9 10 19 10 11 0 32 11 48 24 30 25 117 66 139 66 8 0 14 5 14
10 0 6 -6 10 -14 10 -8 0 -20 2 -28 4 -7 2 -35 -2 -63 -10z"/>
<path d="M506 2905 c-19 -22 -61 -31 -71 -15 -3 5 -15 0 -26 -11 -14 -14 -18
-24 -11 -31 12 -12 35 -1 27 13 -4 5 4 9 17 9 38 0 132 -27 136 -39 6 -18 22
-13 22 7 0 9 -17 33 -38 53 l-38 35 -18 -21z"/>
<path d="M205 2900 c3 -5 10 -10 16 -10 5 0 9 5 9 10 0 6 -7 10 -16 10 -8 0
-12 -4 -9 -10z"/>
<path d="M320 2890 c0 -5 5 -10 11 -10 5 0 7 5 4 10 -3 6 -8 10 -11 10 -2 0
-4 -4 -4 -10z"/>
<path d="M448 2843 c7 -3 16 -2 19 1 4 3 -2 6 -13 5 -11 0 -14 -3 -6 -6z"/>
<path d="M520 2830 c0 -5 5 -10 11 -10 5 0 7 5 4 10 -3 6 -8 10 -11 10 -2 0
-4 -4 -4 -10z"/>
<path d="M1338 2802 c-19 -4 -23 -19 -10 -39 11 -17 34 1 30 23 -2 12 -9 18
-20 16z"/>
<path d="M1546 2754 c-10 -26 -7 -34 14 -34 11 0 20 4 20 9 0 17 -12 41 -20
41 -4 0 -11 -7 -14 -16z"/>
<path d="M1094 2723 c6 -36 13 -60 32 -108 4 -11 8 -24 8 -28 1 -8 27 -27 38
-27 4 0 5 6 2 14 -4 10 5 16 25 21 40 8 43 15 44 83 0 66 -13 76 -48 35 -20
-22 -25 -24 -25 -10 0 9 -7 17 -15 17 -8 0 -15 4 -15 8 0 5 -12 14 -26 21
l-26 12 6 -38z m126 -97 c0 -3 -4 -8 -10 -11 -5 -3 -10 -1 -10 4 0 6 5 11 10
11 6 0 10 -2 10 -4z"/>
<path d="M1467 2736 c-6 -16 2 -28 14 -20 12 7 11 34 0 34 -5 0 -11 -6 -14
-14z"/>
<path d="M1570 2699 c0 -5 5 -7 10 -4 6 3 10 8 10 11 0 2 -4 4 -10 4 -5 0 -10
-5 -10 -11z"/>
<path d="M1460 2679 c0 -5 5 -7 10 -4 6 3 10 8 10 11 0 2 -4 4 -10 4 -5 0 -10
-5 -10 -11z"/>
<path d="M5195 2660 c3 -5 8 -10 11 -10 2 0 4 5 4 10 0 6 -5 10 -11 10 -5 0
-7 -4 -4 -10z"/>
<path d="M1215 2570 c3 -5 10 -10 16 -10 5 0 9 5 9 10 0 6 -7 10 -16 10 -8 0
-12 -4 -9 -10z"/>
<path d="M6368 2343 c7 -3 16 -2 19 1 4 3 -2 6 -13 5 -11 0 -14 -3 -6 -6z"/>
<path d="M6230 2300 c-13 -8 -13 -10 2 -10 9 0 20 5 23 10 8 13 -5 13 -25 0z"/>
<path d="M762 2263 c-15 -3 -22 -10 -18 -18 2 -7 -1 -16 -9 -19 -7 -2 -16 1
-18 8 -8 21 -58 25 -117 10 -55 -14 -191 -21 -220 -11 -32 11 -110 16 -110 7
0 -5 -24 -21 -54 -34 -30 -14 -57 -30 -61 -35 -3 -6 -14 -11 -25 -11 -13 0
-17 5 -13 19 6 24 0 27 -64 36 l-53 7 0 -139 0 -138 28 -12 c15 -6 66 -12 115
-11 82 0 87 1 87 22 0 12 3 16 8 10 8 -12 82 -7 82 6 0 13 38 19 67 11 18 -5
29 -16 33 -32 4 -18 13 -25 35 -27 23 -2 26 0 15 7 -19 13 -16 15 60 39 57 18
75 19 148 11 84 -9 153 -7 185 6 21 9 22 25 1 25 -8 0 -12 5 -9 10 3 6 18 10
33 10 67 0 94 27 51 50 -31 17 -18 33 37 45 l49 11 -39 17 c-21 9 -46 17 -55
17 -9 0 -31 14 -49 30 -18 17 -37 30 -43 30 -5 0 -9 5 -9 11 0 12 -30 39 -40
37 -3 0 -15 -3 -28 -5z m-642 -193 c0 -5 -6 -10 -14 -10 -8 0 -18 5 -21 10 -3
6 3 10 14 10 12 0 21 -4 21 -10z m193 3 c-7 -2 -19 -2 -25 0 -7 3 -2 5 12 5
14 0 19 -2 13 -5z"/>
<path d="M5656 2171 c-8 -13 18 -21 44 -14 16 4 18 8 8 14 -17 11 -45 11 -52
0z"/>
<path d="M5794 2149 c-3 -6 -15 -9 -25 -6 -12 3 -19 0 -19 -9 0 -17 -14 -18
-41 -3 -16 8 -26 7 -45 -6 -28 -18 -46 -12 -37 11 5 13 2 14 -13 7 -10 -6 -43
-13 -73 -16 -29 -4 -59 -11 -65 -16 -12 -10 -54 -2 -97 19 -22 11 -43 -4 -36
-24 5 -13 11 -15 26 -7 18 10 31 6 31 -11 0 -4 -9 -8 -20 -8 -11 0 -20 -4 -20
-8 0 -11 -72 -46 -125 -62 -22 -6 -47 -14 -55 -17 -8 -4 -44 -8 -80 -10 -42
-2 -69 -8 -76 -18 -7 -10 -14 -11 -21 -4 -7 7 -12 5 -16 -5 -5 -11 0 -16 16
-18 38 -2 71 3 84 14 7 5 17 7 22 3 6 -3 66 -15 135 -26 l124 -20 38 20 c20
11 41 18 46 15 25 -16 114 -31 142 -24 17 5 43 11 57 14 15 3 29 13 33 21 3 9
2 13 -3 10 -5 -3 -11 3 -13 12 -4 19 22 31 120 59 30 8 63 20 75 26 12 7 40
13 61 15 40 3 65 17 53 29 -4 4 -36 8 -72 8 -36 1 -65 5 -65 11 0 17 -38 36
-46 24z"/>
<path d="M965 2070 c3 -5 8 -10 11 -10 2 0 4 5 4 10 0 6 -5 10 -11 10 -5 0 -7
-4 -4 -10z"/>
<path d="M2393 1923 c9 -2 23 -2 30 0 6 3 -1 5 -18 5 -16 0 -22 -2 -12 -5z"/>
<path d="M222 1100 c14 -22 24 -19 15 5 -4 8 -11 15 -17 15 -6 0 -6 -7 2 -20z"/>
<path d="M5402 215 c0 -16 2 -22 5 -12 2 9 2 23 0 30 -3 6 -5 -1 -5 -18z"/>
<path d="M6392 220 c0 -14 2 -19 5 -12 2 6 2 18 0 25 -3 6 -5 1 -5 -13z"/>
<path d="M280 171 c0 -5 5 -13 10 -16 6 -3 10 -2 10 4 0 5 -4 13 -10 16 -5 3
-10 2 -10 -4z"/>
<path d="M30 116 c0 -44 -13 -69 -23 -44 -3 7 -6 -6 -6 -29 -1 -41 -1 -42 34
-40 19 1 35 6 35 11 0 6 5 5 12 -2 19 -19 66 -15 71 5 4 17 5 17 6 1 2 -39 32
-9 30 30 0 11 -2 12 -6 4 -2 -6 -9 -9 -14 -6 -6 3 -17 0 -26 -8 -15 -12 -16
-7 -11 47 3 33 4 50 1 38 -2 -12 -11 -27 -19 -33 -8 -7 -14 -19 -14 -28 0 -28
-39 18 -46 54 -9 51 -24 51 -24 0z m17 -68 c-3 -7 -5 -2 -5 12 0 14 2 19 5 13
2 -7 2 -19 0 -25z"/>
<path d="M5540 144 c0 -8 5 -12 10 -9 6 3 10 10 10 16 0 5 -4 9 -10 9 -5 0
-10 -7 -10 -16z"/>
<path d="M3290 74 c0 -14 4 -23 9 -20 5 3 7 15 4 26 -7 28 -13 25 -13 -6z"/>
<path d="M2750 69 c0 -5 5 -7 10 -4 6 3 10 8 10 11 0 2 -4 4 -10 4 -5 0 -10
-5 -10 -11z"/>
<path d="M3040 63 c0 -10 5 -25 10 -33 8 -12 10 -9 10 12 0 15 -4 30 -10 33
-5 3 -10 -2 -10 -12z"/>
<path d="M861 54 c0 -11 3 -14 6 -6 3 7 2 16 -1 19 -3 4 -6 -2 -5 -13z"/>
<path d="M2741 34 c0 -11 3 -14 6 -6 3 7 2 16 -1 19 -3 4 -6 -2 -5 -13z"/>
<path d="M4354 15 c-19 -14 -18 -14 4 -15 13 0 22 6 22 15 0 19 -1 19 -26 0z"/>
</g>
</svg>
